<svg xmlns="http://www.w3.org/2000/svg" viewBox="0 0 120 120">
  <defs>
    <linearGradient id="bg" x1="0%" y1="0%" x2="100%" y2="100%">
      <stop offset="0%" style="stop-color:#FF6B6B;stop-opacity:1" />
      <stop offset="100%" style="stop-color:#FF8E53;stop-opacity:1" />
    </linearGradient>
  </defs>
  <rect width="120" height="120" rx="15" fill="url(#bg)"/>
  <g transform="translate(15, 15)">
    <!-- Running person silhouette -->
    <ellipse cx="35" cy="20" rx="12" ry="12" fill="#fff"/>
    <path d="M 30 35 L 25 70 Q 20 80 10 75 Q 5 70 10 65 L 25 50 L 35 35 L 55 25 L 75 20 L 80 30 L 60 40 L 45 50 L 50 65 L 65 80 Q 70 90 60 95 Q 50 95 45 85 L 35 65 Z" fill="#fff"/>
    <path d="M 55 25 Q 60 15 70 15 Q 80 15 85 25 Q 90 35 80 40 Q 70 45 60 40 Z" fill="#fff" opacity="0.7"/>
  </g>
  
  <!-- Decorative elements -->
  <circle cx="20" cy="100" r="8" fill="#ffd700" opacity="0.8"/>
  <circle cx="100" cy="20" r="6" fill="#ffd700" opacity="0.6"/>
  <circle cx="110" cy="90" r="5" fill="#ffd700" opacity="0.7"/>
</svg>